<?xml version="1.0" encoding="UTF-8"?>
<svg width="1200pt" height="1200pt" version="1.1" viewBox="0 0 1200 1200" xmlns="http://www.w3.org/2000/svg">
 <path color="#9090909A" d="m460.99 251.51c-7.0312-7.0312-10.98-16.57-10.98-26.512 0-9.9453 3.9492-19.484 10.98-26.516l112.5-112.5c7.0312-7.0312 16.57-10.98 26.512-10.98 9.9453 0 19.484 3.9492 26.516 10.98l112.5 112.5c9.2734 9.5117 12.824 23.219 9.332 36.035-3.4922 12.816-13.508 22.832-26.324 26.324-12.816 3.4922-26.523-0.058594-36.035-9.332l-48.488-48.484v284.47c0 13.398-7.1484 25.777-18.75 32.477-11.602 6.6992-25.898 6.6992-37.5 0-11.602-6.6992-18.75-19.078-18.75-32.477v-284.47l-48.488 48.484c-7.0312 7.0312-16.566 10.98-26.512 10.98s-19.48-3.9492-26.512-10.98zm-257.96 385.99h284.47c13.398 0 25.777-7.1484 32.477-18.75 6.6992-11.602 6.6992-25.898 0-37.5-6.6992-11.602-19.078-18.75-32.477-18.75h-284.47l48.488-48.488c9.2344-9.5195 12.754-23.207 9.2539-36-3.4961-12.793-13.492-22.785-26.281-26.281-12.793-3.4961-26.48 0.023437-36 9.2578l-112.5 112.5c-7.0312 7.0312-10.98 16.57-10.98 26.512 0 9.9453 3.9492 19.484 10.98 26.516l112.5 112.5c9.5195 9.2344 23.207 12.754 36 9.2539 12.793-3.4961 22.785-13.492 26.281-26.281 3.4961-12.793-0.023437-26.48-9.2578-36zm482.96 310.99-48.488 48.484v-284.47c0-13.398-7.1484-25.777-18.75-32.477-11.602-6.6992-25.898-6.6992-37.5 0-11.602 6.6992-18.75 19.078-18.75 32.477v284.47l-48.488-48.488c-9.5195-9.2344-23.207-12.754-36-9.2539-12.793 3.4961-22.785 13.492-26.281 26.281-3.4961 12.793 0.023437 26.48 9.2578 36l112.5 112.5c7.0312 7.0312 16.57 10.98 26.512 10.98 9.9453 0 19.484-3.9492 26.516-10.98l112.5-112.5c9.2344-9.5195 12.754-23.207 9.2539-36-3.4961-12.793-13.492-22.785-26.281-26.281-12.793-3.4961-26.48 0.023437-36 9.2578zm428.03-375-112.5-112.5c-9.5195-9.2344-23.207-12.754-36-9.2578-12.789 3.4961-22.785 13.488-26.281 26.281-3.5 12.793 0.019531 26.48 9.2539 36l48.484 48.488h-284.47c-13.398 0-25.777 7.1484-32.477 18.75-6.6992 11.602-6.6992 25.898 0 37.5 6.6992 11.602 19.078 18.75 32.477 18.75h284.47l-48.488 48.488c-9.2344 9.5195-12.754 23.207-9.2539 36 3.4961 12.793 13.492 22.785 26.281 26.281 12.793 3.4961 26.48-0.023437 36-9.2578l112.5-112.5c7.0312-7.0312 10.98-16.566 10.98-26.512s-3.9492-19.48-10.98-26.512z"/>
</svg>
